<svg width="1920" height="496" viewBox="0 0 1920 496" fill="none" xmlns="http://www.w3.org/2000/svg">
<path d="M519.871 266.213V217.24H541.846V214.101C541.846 163.872 573.239 134.99 624.724 134.99V184.591C604.632 184.591 594.587 193.695 594.587 214.101V217.24H628.177V266.213H594.587V357.881H541.846V266.213H519.871Z" fill="white"/>
<path d="M650.466 357.881V138.13H703.207V357.881H650.466Z" fill="white"/>
<path d="M809.166 361.648C759.251 361.648 722.521 329.627 722.521 279.398C722.521 229.169 759.251 197.149 809.166 197.149C859.081 197.149 895.81 229.169 895.81 279.398C895.81 329.627 859.081 361.648 809.166 361.648ZM809.166 246.75C789.074 246.75 775.889 258.993 775.889 279.398C775.889 299.804 789.074 312.047 809.166 312.047C829.257 312.047 842.442 299.804 842.442 279.398C842.442 258.993 829.257 246.75 809.166 246.75Z" fill="white"/>
<path d="M948.386 357.881L896.902 210.961V200.916H949.642L979.78 292.27H982.919L1013.37 200.916H1064.54L1094.68 292.27H1097.82L1128.27 200.916H1177.24C1177.24 204.839 1177.24 207.038 1177.24 210.961L1122.3 357.881H1063.29L1037.23 280.34H1034.4L1005.84 357.881H948.386Z" fill="white"/>
<path d="M1343.31 249.575V259.307H1288.69C1286.8 250.203 1274.87 241.413 1261.69 241.413C1249.13 241.413 1240.03 245.18 1240.03 253.342C1240.03 277.829 1345.19 253.028 1345.19 311.733C1345.19 340.615 1315.06 361.648 1266.08 361.648C1226.22 361.648 1190.11 342.185 1179.75 310.164V300.432H1234.38C1237.83 311.733 1251.33 319.268 1264.51 319.268C1279.9 319.268 1288.37 313.617 1288.37 307.024C1288.37 287.875 1184.46 308.594 1184.46 248.947C1184.46 220.693 1215.86 197.149 1261.06 197.149C1305.01 197.149 1333.89 220.065 1343.31 249.575Z" fill="white"/>
<path d="M1426.82 153.826V201.23H1458.84V250.203H1426.82V287.875C1426.82 302.629 1433.72 311.105 1447.54 311.105C1449.11 311.105 1455.7 310.478 1457.27 310.164V359.137C1451.3 360.706 1438.43 361.648 1431.53 361.648C1388.83 361.648 1374.08 329.313 1374.08 288.502V250.203H1355.24V201.23H1374.08V169.523L1426.82 153.826Z" fill="white"/>
<path d="M1589.78 298.862H1645.04V308.908C1635.3 338.731 1602.34 361.648 1559.65 361.648C1509.73 361.648 1473 329.627 1473 279.398C1473 229.169 1509.73 197.149 1559.65 197.149C1606.74 197.149 1640.64 225.402 1645.04 266.841V286.305H1526.68C1529.19 303.571 1541.75 313.931 1559.65 313.931C1572.52 313.931 1583.82 309.222 1589.78 298.862ZM1559.65 241.099C1545.83 241.099 1535.16 247.377 1529.82 258.365H1589.47C1584.13 247.377 1574.4 241.099 1559.65 241.099Z" fill="white"/>
<path d="M1663.83 406.54V200.916H1716.57V215.984C1728.5 204.055 1744.83 197.149 1763.35 197.149C1803.85 197.149 1833.36 229.169 1833.36 279.398C1833.36 329.627 1803.85 361.648 1763.35 361.648C1744.83 361.648 1728.5 355.056 1716.57 343.126V406.54H1663.83ZM1747.34 246.75C1727.56 246.75 1714.69 258.993 1714.69 279.398C1714.69 299.804 1727.56 312.047 1747.34 312.047C1767.12 312.047 1779.99 299.804 1779.99 279.398C1779.99 258.993 1767.12 246.75 1747.34 246.75Z" fill="white"/>
<path fill-rule="evenodd" clip-rule="evenodd" d="M128.364 296.867C101.469 250.55 62.7221 183.824 106.233 134.487C155.062 79.1188 386.92 63.6657 425.697 132.204C465.739 200.014 336.411 392.829 263.985 407.379C199.449 420.345 160.963 353.469 134.249 307.047C133.254 305.319 132.276 303.619 131.314 301.953C130.35 300.287 129.365 298.591 128.364 296.867ZM176.437 236.4C176.386 209.408 176.3 164.439 206.969 154.038C241.374 142.369 360.025 200.329 359.666 239.307C360.025 278.284 241.374 336.244 206.969 324.576C176.3 314.174 176.386 269.206 176.437 242.214C176.439 241.219 176.441 240.25 176.441 239.307C176.441 238.364 176.439 237.394 176.437 236.4Z" fill="white"/>
</svg>
