<svg width="112" height="24" viewBox="0 0 112 24" fill="none" xmlns="http://www.w3.org/2000/svg">
<path d="M29 13.1406V10.1023H30.3629V9.90754C30.3629 6.79133 32.31 4.99951 35.5031 4.99951V8.07677C34.257 8.07677 33.634 8.64158 33.634 9.90754V10.1023H35.7173V13.1406H33.634V18.8277H30.3629V13.1406H29Z" fill="#0247FE"/>
<path d="M37.0997 18.8277V5.19427H40.3708V18.8277H37.0997Z" fill="#0247FE"/>
<path d="M46.9425 19.0614C43.8467 19.0614 41.5686 17.0748 41.5686 13.9586C41.5686 10.8424 43.8467 8.85582 46.9425 8.85582C50.0383 8.85582 52.3164 10.8424 52.3164 13.9586C52.3164 17.0748 50.0383 19.0614 46.9425 19.0614ZM46.9425 11.9331C45.6964 11.9331 44.8786 12.6927 44.8786 13.9586C44.8786 15.2246 45.6964 15.9841 46.9425 15.9841C48.1886 15.9841 49.0064 15.2246 49.0064 13.9586C49.0064 12.6927 48.1886 11.9331 46.9425 11.9331Z" fill="#0247FE"/>
<path d="M55.5772 18.8277L52.384 9.71278V9.08954H55.6551L57.5243 14.7571H57.719L59.6076 9.08954H62.7813L64.6504 14.7571H64.8451L66.7338 9.08954H69.7712C69.7712 9.33293 69.7712 9.46939 69.7712 9.71278L66.3638 18.8277H62.7034L61.0873 14.017H60.9121L59.1403 18.8277H55.5772Z" fill="#0247FE"/>
<path d="M80.0711 12.1084V12.7121H76.6832C76.5664 12.1473 75.8265 11.602 75.0087 11.602C74.2299 11.602 73.6653 11.8357 73.6653 12.3421C73.6653 13.8612 80.1879 12.3226 80.1879 15.9647C80.1879 17.7565 78.3187 19.0614 75.2813 19.0614C72.8086 19.0614 70.5695 17.8539 69.9269 15.8673V15.2635H73.3148C73.529 15.9647 74.3662 16.4321 75.184 16.4321C76.138 16.4321 76.6637 16.0815 76.6637 15.6725C76.6637 14.4845 70.219 15.7699 70.219 12.0694C70.219 10.3165 72.166 8.85582 74.9698 8.85582C77.6957 8.85582 79.4869 10.2776 80.0711 12.1084Z" fill="#0247FE"/>
<path d="M85.2502 6.16809V9.10901H87.2362V12.1473H85.2502V14.4845C85.2502 15.3999 85.6786 15.9257 86.5353 15.9257C86.6326 15.9257 87.0415 15.8868 87.1388 15.8673V18.9056C86.7689 19.003 85.9706 19.0614 85.5423 19.0614C82.8943 19.0614 81.9792 17.0553 81.9792 14.5234V12.1473H80.8109V9.10901H81.9792V7.14191L85.2502 6.16809Z" fill="#0247FE"/>
<path d="M95.3577 15.1661H98.7845V15.7894C98.1809 17.6396 96.1365 19.0614 93.4885 19.0614C90.3927 19.0614 88.1147 17.0748 88.1147 13.9586C88.1147 10.8424 90.3927 8.85582 93.4885 8.85582C96.4091 8.85582 98.5119 10.6087 98.7845 13.1796V14.3871H91.4441C91.5999 15.4583 92.3787 16.101 93.4885 16.101C94.2868 16.101 94.9877 15.8089 95.3577 15.1661ZM93.4885 11.5825C92.6318 11.5825 91.9698 11.972 91.6388 12.6537H95.3382C95.0072 11.972 94.4036 11.5825 93.4885 11.5825Z" fill="#0247FE"/>
<path d="M99.9504 21.8465V9.08954H103.221V10.0244C103.961 9.2843 104.974 8.85582 106.123 8.85582C108.634 8.85582 110.464 10.8424 110.464 13.9586C110.464 17.0748 108.634 19.0614 106.123 19.0614C104.974 19.0614 103.961 18.6524 103.221 17.9123V21.8465H99.9504ZM105.13 11.9331C103.903 11.9331 103.105 12.6927 103.105 13.9586C103.105 15.2246 103.903 15.9841 105.13 15.9841C106.356 15.9841 107.154 15.2246 107.154 13.9586C107.154 12.6927 106.356 11.9331 105.13 11.9331Z" fill="#0247FE"/>
<path fill-rule="evenodd" clip-rule="evenodd" d="M3.83751 15.0422C2.16941 12.1687 -0.233709 8.02905 2.46489 4.96817C5.49339 1.5331 19.8735 0.574387 22.2786 4.82651C24.7621 9.03344 16.7409 20.9957 12.249 21.8984C8.2463 22.7028 5.85937 18.5538 4.2025 15.6738C4.14082 15.5666 4.08015 15.4611 4.02044 15.3578C3.96069 15.2544 3.89961 15.1492 3.83751 15.0422ZM6.8191 11.2908C6.81591 9.61625 6.8106 6.82638 8.71273 6.18107C10.8466 5.45715 18.2055 9.053 18.1832 11.4712C18.2055 13.8894 10.8466 17.4852 8.71273 16.7613C6.8106 16.116 6.81591 13.3261 6.8191 11.6515C6.81921 11.5899 6.81933 11.5297 6.81934 11.4712C6.81933 11.4127 6.81921 11.3525 6.8191 11.2908Z" fill="#0247FE"/>
</svg>
